<svg xmlns="http://www.w3.org/2000/svg" viewBox="0 0 3158 994"><title>Accrue wordmark</title><desc>The Accrue logotype (wordmark only, no mark).</desc><path fill="#181818" d="M223 793q-82 0-130.5-38T44 649t40-107 127-55l188-35q0-133-126-133-55 0-87 24.5T142 414l-89-7q15-75 72.5-121.5T273 239q102 0 156 57.5T483 455v219q0 33 28 33h21v74q-12 2-32 2-46 0-69.5-18.5T401 704l-1-5q-20 41-69 67.5T223 793m8-74q80 0 124-45t44-111v-38l-172 32q-54 10-74.5 30.5T132 641q0 37 26.5 57.5T231 719m607 74q-74 0-128.5-34T625 662.5 595 516t30-146 84.5-96.5T838 239q92 0 152 47.5t73 136.5l-88 6q-9-53-46-81.5T838 319q-73 0-114 52.5T683 516t41 144.5T838 713q54 0 91-30t46-90l88 6q-13 88-73 141t-152 53m546 0q-74 0-128.5-34t-84.5-96.5-30-146.5 30-146 84.5-96.5T1384 239q92 0 152 47.5t73 136.5l-88 6q-9-53-46-81.5t-91-28.5q-73 0-114 52.5T1229 516t41 144.5 114 52.5q54 0 91-30t46-90l88 6q-13 88-73 141t-152 53m423-12h-84V251h74l3 98q27-98 126-98h52v80h-51q-120 0-120 130m469 332q-79 0-126.5-53.5T2102 592V251h84v318q0 77 27.5 113.5T2298 719q63 0 99-40.5t36-111.5V251h84v530h-80v-86q-44 98-161 98m608 0q-75 0-129.5-34t-84-96.5T2641 516t29.5-146 83-96.5T2880 239q69 0 122 32.5t82.5 94.5 29.5 151v25h-385q5 85 45.5 128t109.5 43q52 0 85.5-24.5T3016 624l90 7q-21 71-79.5 116.5T2884 793m-155-325h293q-6-77-44.5-113t-97.5-36q-61 0-100.5 37.5T2729 468"/></svg>